{
    "asset" : {
        "generator" : "Khronos glTF Blender I/O v1.5.17",
        "version" : "2.0"
    },
    "scene" : 0,
    "scenes" : [
        {
            "name" : "Scene",
            "nodes" : [
                0
            ]
        }
    ],
    "nodes" : [
        {
            "mesh" : 0,
            "name" : "Head Iam B9Cf2Ea.003",
            "scale" : [
                0.004079831298440695,
                0.004079831298440695,
                0.004079831298440695
            ],
            "translation" : [
                0,
                0,
                0
            ]
        }
    ],
    "meshes" : [
        {
            "name" : "Head Iam B9Cf2Ea.005",
            "primitives" : [
                {
                    "attributes" : {
                        "POSITION" : 0,
                        "NORMAL" : 1
                    },
                    "indices" : 2
                }
            ]
        }
    ],
    "accessors" : [
        {
            "bufferView" : 0,
            "componentType" : 5126,
            "count" : 20823,
            "max" : [
                114.59976196289062,
                160.76881408691406,
                86.87956237792969
            ],
            "min" : [
                -81.14586639404297,
                -55.81764602661133,
                -68.55998229980469
            ],
            "type" : "VEC3"
        },
        {
            "bufferView" : 1,
            "componentType" : 5126,
            "count" : 20823,
            "type" : "VEC3"
        },
        {
            "bufferView" : 2,
            "componentType" : 5123,
            "count" : 21075,
            "type" : "SCALAR"
        }
    ],
    "bufferViews" : [
        {
            "buffer" : 0,
            "byteLength" : 249876,
            "byteOffset" : 0
        },
        {
            "buffer" : 0,
            "byteLength" : 249876,
            "byteOffset" : 249876
        },
        {
            "buffer" : 0,
            "byteLength" : 42150,
            "byteOffset" : 499752
        }
    ],
    "buffers" : [
        {
            "byteLength" : 541904,
            "uri" : "data:application/octet-stream;base64,"
        }
    ]
}
